<?xml version="1.0" encoding="utf-8"?>
<!-- Generator: Adobe Illustrator 18.0.0, SVG Export Plug-In . SVG Version: 6.00 Build 0)  -->
<!DOCTYPE svg PUBLIC "-//W3C//DTD SVG 1.1//EN" "http://www.w3.org/Graphics/SVG/1.1/DTD/svg11.dtd">
<svg version="1.1" id="Layer_1" xmlns="http://www.w3.org/2000/svg" xmlns:xlink="http://www.w3.org/1999/xlink" x="0px" y="0px"
	 viewBox="0 0 208 80" enable-background="new 0 0 208 80" xml:space="preserve">
<g>
	<path fill="none" stroke="#CCCCCC" stroke-width="0.25" stroke-miterlimit="10" d="M82.2,41.9c-1.3,0-2.6,0.7-3.2,1.8L77,47
		l-0.1-0.2v-4l4.2-1.7c1.4-0.5,2.3-1.9,2.3-3.3c0-1.2-0.6-2.2-1.5-2.9c-0.9-0.7-2.1-0.9-3.2-0.5l-0.5,0.2l0.5-1
		c0.5-1,0.8-2.2,0.8-3.4c0-2-1.7-3.7-3.7-3.7c-1.4,0-2.7,0.8-3.3,2l-3.2,6.4l-2.7,13.2l0,17l1,5.2H64v9h19.4v-9h-3.9v-8.6l2.4-3.5
		l3.5-9.3c0.4-1,0.6-2.1,0.6-3.2C85.9,43.6,84.2,41.9,82.2,41.9z M79.4,36.8c0.3-0.1,0.6-0.1,0.9,0.1c0.3,0.2,0.4,0.5,0.4,0.8
		c0,0.4-0.2,0.8-0.6,0.9L76.9,40v-2.3L79.4,36.8z M80.8,72.9v3.9H66.6v-3.9H80.8z M82.9,48l-3.3,8.9l-2.7,4.1v9.4h-6.7L69.2,65V48.5
		l2.5-12.6l3.1-6.3c0.2-0.4,0.6-0.6,1-0.6c0.6,0,1.1,0.5,1.1,1.1c0,0.8-0.2,1.5-0.5,2.2l-2.1,4.1v10.9l2.5,5l4.4-7.3
		c0.2-0.4,0.6-0.6,1-0.6c0.7,0,1.2,0.5,1.2,1.2C83.4,46.5,83.2,47.2,82.9,48z"/>
	<path fill="none" stroke="#CCCCCC" stroke-width="0.25" stroke-miterlimit="10" d="M140.4,70.3l1-4.9l0-17l-2.6-13.2l-3.3-6.7
		c-0.6-1.3-1.9-2-3.3-2c-2,0-3.7,1.7-3.7,3.7c0,1.2,0.3,2.3,0.8,3.4l0.5,1l-0.5-0.2c-1.1-0.4-2.3-0.2-3.2,0.5
		c-0.9,0.7-1.5,1.8-1.5,2.9c0,1.5,0.9,2.8,2.3,3.3l4.2,1.7v4L131,47l-1.9-3.2c-0.7-1.1-1.9-1.8-3.2-1.8c-2.1,0-3.8,1.7-3.8,3.8
		c0,1.1,0.2,2.1,0.6,3.2l3.4,9l2.5,3.8v8.6h-3.9v9H144v-9H140.4z M127.9,38.7c-0.4-0.2-0.6-0.5-0.6-0.9c0-0.3,0.2-0.6,0.4-0.8
		c0.3-0.2,0.6-0.2,0.9-0.1l2.5,0.9V40L127.9,38.7z M128.4,56.8l-3.3-8.9c-0.3-0.7-0.4-1.5-0.4-2.3c0-0.7,0.5-1.2,1.2-1.2
		c0.4,0,0.8,0.2,1,0.6l4.4,7.3l2.5-5V36.5l-2.1-4.1c-0.3-0.7-0.5-1.5-0.5-2.2c0-0.6,0.5-1.1,1.1-1.1c0.4,0,0.8,0.2,1,0.6l3.1,6.3
		l2.5,12.6V65l-1.1,5.3h-6.7v-9.4L128.4,56.8z M141.4,76.8h-14.2v-3.9h14.2V76.8z"/>
	<path fill="none" stroke="#CCCCCC" stroke-width="0.25" stroke-miterlimit="10" d="M120.3,23.9h3v-7.7h-3c-0.4-1.7-1.1-3.4-2-4.9
		l2.2-2.2l-5.5-5.5l-2.2,2.2c-1.5-0.9-3.2-1.6-4.9-2v-3h-7.7v3c-1.7,0.4-3.4,1.1-4.9,2l-2.2-2.2l-5.5,5.5l2.2,2.2
		c-0.9,1.5-1.6,3.2-2,4.9h-3v7.7h3c0.4,1.7,1.1,3.4,2,4.9l-2.2,2.2l5.5,5.5l2-2c0,0.1,0,0.3,0,0.4c0,1.1,0.6,2.1,1.5,2.7
		c-0.1,0.4-0.2,0.7-0.2,1.1c0,1.8,1.4,3.2,3.2,3.2h9c1.8,0,3.2-1.4,3.2-3.2c0-0.4-0.1-0.8-0.2-1.1c0.9-0.6,1.5-1.6,1.5-2.7
		c0-0.1,0-0.2,0-0.3l1.9,1.9l5.5-5.5l-2.2-2.2C119.2,27.3,119.9,25.6,120.3,23.9z M108.5,39.4h-9c-0.4,0-0.6-0.3-0.6-0.6
		c0-0.4,0.3-0.6,0.6-0.6h9c0.4,0,0.6,0.3,0.6,0.6C109.2,39.1,108.9,39.4,108.5,39.4z M109.8,35.5h-1.3h-9h-1.3
		c-0.4,0-0.6-0.3-0.6-0.6c0-0.4,0.3-0.6,0.6-0.6h11.6c0.4,0,0.6,0.3,0.6,0.6C110.5,35.2,110.2,35.5,109.8,35.5z M105.3,23.6
		c1.5-0.5,2.6-2,2.6-3.6c0-2.1-1.7-3.9-3.9-3.9s-3.9,1.7-3.9,3.9c0,1.7,1.1,3.1,2.6,3.6v8h-2.6v-3.4l-0.6-0.4
		C96.7,26.2,95,23.2,95,20c0-5,4.1-9,9-9s9,4.1,9,9c0,3.2-1.7,6.2-4.5,7.8l-0.6,0.4v3.4h-2.6V23.6z M104,21.3
		c-0.7,0-1.3-0.6-1.3-1.3c0-0.7,0.6-1.3,1.3-1.3s1.3,0.6,1.3,1.3C105.3,20.7,104.7,21.3,104,21.3z M118,22.4
		c-0.4,2.1-1.2,4.1-2.4,5.8l-0.6,0.9l1.8,1.8l-1.8,1.8l-1.8-1.8l-0.9,0.6c-0.2,0.2-0.5,0.3-0.8,0.5c-0.3-0.2-0.6-0.3-1-0.4v-2
		c3.2-2.1,5.2-5.8,5.2-9.6c0-6.4-5.2-11.6-11.6-11.6S92.4,13.6,92.4,20c0,3.9,2,7.5,5.2,9.6v2c-0.4,0.1-0.7,0.2-1,0.4
		c-0.3-0.2-0.5-0.3-0.8-0.5l-0.9-0.6l-1.8,1.8l-1.8-1.8l1.8-1.8l-0.6-0.9c-1.2-1.7-2.1-3.7-2.4-5.8l-0.2-1.1h-2.6v-2.6h2.6l0.2-1.1
		c0.4-2.1,1.2-4.1,2.4-5.8l0.6-0.9l-1.8-1.8l1.8-1.8l1.8,1.8l0.9-0.6c1.7-1.2,3.7-2.1,5.8-2.4l1.1-0.2V3.2h2.6v2.6l1.1,0.2
		c2.1,0.4,4.1,1.2,5.8,2.4l0.9,0.6l1.8-1.8l1.8,1.8l-1.8,1.8l0.6,0.9c1.2,1.7,2.1,3.7,2.4,5.8l0.2,1.1h2.6v2.6h-2.6L118,22.4z"/>
	<rect x="102.7" y="44.5" fill="none" stroke="#CCCCCC" stroke-width="0.25" stroke-miterlimit="10" width="2.6" height="2.6"/>
	<rect x="102.7" y="49.7" fill="none" stroke="#CCCCCC" stroke-width="0.25" stroke-miterlimit="10" width="2.6" height="2.6"/>
	<rect x="102.7" y="54.8" fill="none" stroke="#CCCCCC" stroke-width="0.25" stroke-miterlimit="10" width="2.6" height="2.6"/>
	<rect x="102.7" y="60" fill="none" stroke="#CCCCCC" stroke-width="0.25" stroke-miterlimit="10" width="2.6" height="2.6"/>
</g>
</svg>
