<?xml version="1.0" encoding="utf-8"?>
<!-- Generator: Adobe Illustrator 18.0.0, SVG Export Plug-In . SVG Version: 6.00 Build 0)  -->
<!DOCTYPE svg PUBLIC "-//W3C//DTD SVG 1.1//EN" "http://www.w3.org/Graphics/SVG/1.1/DTD/svg11.dtd">
<svg version="1.1" id="Layer_1" xmlns="http://www.w3.org/2000/svg" xmlns:xlink="http://www.w3.org/1999/xlink" x="0px" y="0px"
	 viewBox="0 0 208 80" enable-background="new 0 0 208 80" xml:space="preserve">
<g>
	<g>
		<path fill="none" stroke="#CCCCCC" stroke-width="0.25" stroke-miterlimit="10" d="M140.6,73.1h-8.7V46.6c0-1.9-1.5-3.4-3.4-3.4
			c-1.9,0-3.4,1.5-3.4,3.4v26.5h-13.9V38.5c0-1.9-1.5-3.4-3.4-3.4s-3.4,1.5-3.4,3.4v34.6H90.3v-17c0-1.9-1.5-3.4-3.4-3.4
			c-1.9,0-3.4,1.5-3.4,3.4v17H70.8V5.5c0-1.9-1.5-3.4-3.4-3.4c-1.9,0-3.4,1.5-3.4,3.4v71c0,1.9,1.5,3.4,3.4,3.4h73
			c1.9,0,3.6-1.5,3.6-3.4S142.5,73.1,140.6,73.1z"/>
		<path fill="none" stroke="#CCCCCC" stroke-width="0.25" stroke-miterlimit="10" d="M86.9,48.2c5.8,0,10.4-4.8,10.5-10.4
			c0-2.3-0.7-4.4-2-6.1l9.2-11.4c1,0.3,2,0.5,3.1,0.5c1.3,0,2.6-0.3,3.8-0.7l7.3,6.9c-0.4,1.1-0.7,2.4-0.7,3.7
			c0,5.8,4.8,10.4,10.4,10.4c5.6,0,10.4-4.6,10.4-10.4c0-5.8-4.8-10.4-10.4-10.4c-2,0-3.8,0.5-5.4,1.5l-6.4-6.1
			c0.9-1.5,1.4-3.3,1.4-5.2c0-5.8-4.8-10.4-10.4-10.4c-5.8,0-10.4,4.6-10.4,10.4c0,2.2,0.7,4.2,1.8,5.8l-9.4,11.6
			c-0.9-0.3-1.8-0.4-2.8-0.4c-5.8,0-10.4,4.6-10.4,10.4C76.7,43.4,81.3,48.2,86.9,48.2z M128.5,27.1c2,0,3.6,1.5,3.7,3.7
			c0,2-1.7,3.7-3.7,3.7s-3.7-1.7-3.7-3.7S126.5,27.1,128.5,27.1z M107.8,6.7c1.9,0,3.7,1.7,3.7,3.7s-1.7,3.7-3.7,3.7
			c-2,0-3.7-1.7-3.7-3.7S105.8,6.7,107.8,6.7z M86.9,34.1c2,0,3.7,1.7,3.7,3.7s-1.7,3.7-3.7,3.7c-2,0-3.7-1.7-3.7-3.7
			C83.2,35.8,84.9,34.1,86.9,34.1z"/>
	</g>
</g>
</svg>
