<?xml version="1.0" encoding="UTF-8" standalone="no"?><!DOCTYPE svg PUBLIC "-//W3C//DTD SVG 1.1//EN" "http://www.w3.org/Graphics/SVG/1.1/DTD/svg11.dtd"><svg width="100%" height="100%" viewBox="0 0 1722 1404" version="1.1" xmlns="http://www.w3.org/2000/svg" xmlns:xlink="http://www.w3.org/1999/xlink" xml:space="preserve" xmlns:serif="http://www.serif.com/" style="fill-rule:evenodd;clip-rule:evenodd;stroke-linejoin:round;stroke-miterlimit:2;"><path d="M696.702,838.568l18.701,72.329l-14.117,0l-12.456,-52.1l-23.484,52.1l-11.925,0l-23.352,-51.801l-12.821,51.801l-13.818,0l18.535,-72.329l12.223,-0l25.245,56.003l25.145,-56.003l12.124,-0Z" style="fill:none;fill-rule:nonzero;stroke:#003545;stroke-width:2.78px;"/><path d="M768.732,866.52l0,-8.421l13.636,0l-0,52.798l-13.636,0l0,-8.503c-3.604,6.112 -11.011,9.616 -20.029,9.616c-18.851,0 -29.364,-13.287 -29.364,-28.566c0,-14.732 9.965,-26.574 27.354,-26.574c9.915,0.117 18.137,3.438 22.039,9.65Zm-34.877,17.638c-0,9.716 6.112,18.037 17.937,18.037c11.41,-0 17.621,-8.122 17.621,-17.738c0,-9.616 -6.41,-17.838 -18.269,-17.838c-11.36,0 -17.272,8.205 -17.272,17.539l-0.017,-0Z" style="fill:none;fill-rule:nonzero;stroke:#003545;stroke-width:2.78px;"/><path d="M813.11,910.897l-13.619,0l0,-52.798l13.619,0l-0,11.826c3.177,-7.719 10.687,-12.824 19.033,-12.938c2.9,-0.04 5.784,0.432 8.52,1.395l-2.906,9.965c-2.353,-0.625 -4.774,-0.959 -7.208,-0.997c-9.832,0 -17.439,7.408 -17.439,18.269l-0,25.278Z" style="fill:none;fill-rule:nonzero;stroke:#003545;stroke-width:2.78px;"/><path d="M847.473,844.165c-0.002,-0.064 -0.003,-0.129 -0.003,-0.193c-0,-3.8 3.126,-6.926 6.926,-6.926c0.128,-0 0.256,0.004 0.384,0.011c0.078,-0.003 0.156,-0.004 0.234,-0.004c3.945,-0 7.192,3.246 7.192,7.191c-0,0.046 -0.001,0.091 -0.002,0.137c0.001,0.046 0.002,0.091 0.002,0.137c-0,3.781 -3.112,6.892 -6.893,6.892c-0.178,0 -0.355,-0.007 -0.533,-0.02c-0.1,0.004 -0.201,0.006 -0.302,0.006c-3.845,0 -7.009,-3.164 -7.009,-7.009c0,-0.074 0.001,-0.148 0.004,-0.222Zm0.598,13.934l13.635,0l0,38.582c0,2.391 0.498,4.102 2.491,4.102c0.877,-0.022 1.749,-0.122 2.608,-0.299l2.109,9.965c-2.87,1.132 -5.933,1.696 -9.018,1.661c-5.714,-0 -11.825,-1.661 -11.825,-14.632l-0,-39.379Z" style="fill:none;fill-rule:nonzero;stroke:#003545;stroke-width:2.78px;"/><path d="M922.609,866.52l-0,-8.421l13.685,0l0,52.798l-13.635,0l-0,-8.503c-3.604,6.112 -11.012,9.616 -20.03,9.616c-18.834,0 -29.364,-13.287 -29.364,-28.566c0,-14.732 9.965,-26.574 27.354,-26.574c9.866,0.117 18.087,3.438 21.99,9.65Zm-34.878,17.638c0,9.716 6.112,18.037 17.937,18.037c11.427,-0 17.638,-8.122 17.638,-17.738c0,-9.616 -6.427,-17.838 -18.269,-17.838c-11.377,0 -17.289,8.205 -17.289,17.539l-0.017,-0Z" style="fill:none;fill-rule:nonzero;stroke:#003545;stroke-width:2.78px;"/><path d="M957.171,838.568l32.668,-0c27.454,-0 41.173,15.13 40.973,36.156c0.2,21.857 -14.947,36.173 -38.564,36.173l-35.077,0l-0,-72.329Zm9.018,6.411l0,59.607l24.913,0c21.84,0 30.16,-14.731 30.16,-30.061c0,-17.322 -10.413,-29.546 -30.16,-29.546l-24.913,-0Z" style="fill:none;fill-rule:nonzero;stroke:#003545;stroke-width:2.78px;"/><path d="M1086.52,910.897l-41.521,0l-0,-72.329l37.452,-0c14.316,-0 27.951,2.691 27.752,18.734c0,11.31 -7.025,14.433 -14.432,15.629c10.513,0.897 16.84,7.606 16.84,18.435c0.067,16.226 -14.167,19.531 -26.091,19.531Zm-3.106,-40.773c14.333,-0 17.538,-5.514 17.538,-12.523c0,-10.53 -6.411,-12.921 -17.538,-12.921l-29.762,-0l-0,25.444l29.762,-0Zm0.398,6.112l-30.16,-0l-0,28.549l31.456,0c8.819,0 18.136,-2.906 18.136,-14.017c0,-12.822 -10.712,-14.532 -19.432,-14.532Z" style="fill:none;fill-rule:nonzero;stroke:#003545;stroke-opacity:0.5;stroke-width:2.78px;"/><path d="M1115.8,493.845c-1.323,-1.09 -3.004,-1.652 -4.717,-1.578c-4.7,0 -10.778,3.189 -14.05,4.9l-1.296,0.664c-5.488,2.657 -11.463,4.161 -17.555,4.418c-6.244,0.199 -11.626,0.565 -18.634,1.295c-41.521,4.269 -60.039,36.09 -77.877,66.866c-9.716,16.741 -19.747,34.13 -33.499,47.416c-2.845,2.759 -5.869,5.328 -9.051,7.69c-14.234,10.58 -32.104,18.136 -46.006,23.484c-13.386,5.116 -28.001,9.716 -42.118,14.167c-12.938,4.069 -25.145,7.922 -36.373,12.091c-5.065,1.877 -9.367,3.322 -13.17,4.584c-10.231,3.322 -17.605,5.863 -28.384,13.287c-4.202,2.873 -8.42,5.979 -11.277,8.304c-8.556,6.827 -16.129,14.802 -22.504,23.7c-5.482,8.208 -11.818,15.812 -18.9,22.687c-2.276,2.225 -6.312,3.322 -12.357,3.322c-7.075,-0 -15.662,-1.462 -24.746,-3.006c-9.368,-1.661 -19.05,-3.239 -27.354,-3.239c-6.743,-0 -11.909,1.096 -15.762,3.322c0,-0 -6.494,3.786 -9.234,8.686l2.691,1.212c4.172,2.262 8.035,5.053 11.493,8.304c3.607,3.332 7.626,6.19 11.958,8.504c1.382,0.507 2.64,1.306 3.687,2.342c-1.13,1.66 -2.791,3.803 -4.534,6.095c-9.583,12.539 -15.181,20.461 -11.975,24.779c1.536,0.798 3.252,1.187 4.982,1.13c20.894,-0 32.121,-5.431 46.321,-12.307c4.119,-1.993 8.304,-4.036 13.287,-6.145c8.304,-3.604 17.239,-9.351 26.723,-15.429c12.406,-8.088 25.377,-16.393 37.966,-20.395c10.346,-3.155 21.123,-4.668 31.938,-4.484c13.287,-0 27.271,1.777 40.757,3.504c10.048,1.295 20.462,2.624 30.676,3.239c3.969,0.232 7.64,0.348 11.21,0.348c4.777,0.014 9.551,-0.235 14.3,-0.747l1.146,-0.399c7.158,-4.401 10.513,-13.851 13.768,-22.986c2.093,-5.879 3.854,-11.16 6.644,-14.515c0.164,-0.164 0.342,-0.314 0.531,-0.449c0.269,-0.149 0.607,-0.094 0.814,0.133c0.207,0.227 0,0.083 0,0.266c-1.661,35.724 -16.044,58.411 -30.593,78.574l-9.715,10.413c-0,0 13.602,0 21.341,-2.989c28.234,-8.437 49.543,-27.039 65.055,-56.701c3.826,-7.615 7.246,-15.426 10.248,-23.401c0.265,-0.665 2.707,-1.894 2.474,1.544c-0.083,1.013 -0.149,2.143 -0.232,3.322c-0,0.698 -0,1.412 -0.133,2.126c-0.399,4.982 -1.578,15.512 -1.578,15.512l8.719,-4.667c21.027,-13.287 37.236,-40.092 49.526,-81.796c5.116,-17.372 8.869,-34.628 12.174,-49.825c3.953,-18.269 7.358,-33.931 11.261,-40.01c6.128,-9.533 15.479,-15.977 24.53,-22.238c1.229,-0.847 2.475,-1.661 3.687,-2.558c11.377,-7.988 22.687,-17.206 25.179,-34.396l-0,-0.382c1.81,-12.821 0.282,-16.093 -1.462,-17.588Z" style="fill:none;fill-rule:nonzero;stroke:#003545;stroke-width:2.78px;"/><g id="Food---Drinks" serif:id="Food &amp; Drinks"><path d="M872.94,309.419c245.295,0 444.444,199.149 444.444,444.445c0,245.295 -199.149,444.444 -444.444,444.444c-245.296,0 -444.445,-199.149 -444.445,-444.444c0,-245.296 199.149,-444.445 444.445,-444.445Zm-0,2.778c243.762,-0 441.666,197.904 441.666,441.667c0,243.762 -197.904,441.666 -441.666,441.666c-243.763,0 -441.667,-197.904 -441.667,-441.666c-0,-243.763 197.904,-441.667 441.667,-441.667Z" style="fill:#003545;"/></g></svg>