<?xml version="1.0" encoding="UTF-8" standalone="no"?>
<!DOCTYPE svg PUBLIC "-//W3C//DTD SVG 1.1//EN" "http://www.w3.org/Graphics/SVG/1.1/DTD/svg11.dtd">
<svg width="100%" height="100%" viewBox="0 0 4537 2290" version="1.1" xmlns="http://www.w3.org/2000/svg" xmlns:xlink="http://www.w3.org/1999/xlink" xml:space="preserve" xmlns:serif="http://www.serif.com/" style="fill-rule:evenodd;clip-rule:evenodd;stroke-linejoin:round;stroke-miterlimit:2;">
<path d="M2552.69,914.846c-135.648,-134.503 -800.969,-912.763 -1472.75,-912.763c-671.78,0 -1077.86,638.115 -1077.86,1237.94c0,538.157 328.569,1047.35 1103.7,1047.35c503.835,0 1065.81,-509.19 1065.81,-750.239c0,-39.241 -12.919,-61.664 -45.216,-84.088c-6.459,-5.605 -19.378,-11.211 -25.838,-11.211c-19.378,-0 -32.297,11.211 -38.756,16.817c-129.189,134.54 -406.944,369.984 -936.617,369.984c-594.267,-0 -846.185,-364.378 -846.185,-728.756c0,-341.954 277.756,-611.038 671.781,-611.038c897.86,-0 1408.15,1647.25 2674.2,1647.25c587.835,-0 909.935,-447.589 909.935,-901.666c-0,-493.367 -322.1,-935.386 -845.341,-935.386c-400.484,0 -742.834,173.281 -1136.86,615.809Zm129.189,117.73c213.161,-252.277 620.105,-437.285 878.482,-437.285c368.187,-0 652.429,257.888 652.429,706.38c-0,224.246 -90.459,493.341 -374.674,493.341c-445.7,0 -1156.24,-700.769 -1156.24,-762.436Z" style="fill:#000009;fill-rule:nonzero;"/><clipPath id="_clip1"><path d="M2552.69,914.846c-135.648,-134.503 -800.969,-912.763 -1472.75,-912.763c-671.78,0 -1077.86,638.115 -1077.86,1237.94c0,538.157 328.569,1047.35 1103.7,1047.35c503.835,0 1065.81,-509.19 1065.81,-750.239c0,-39.241 -12.919,-61.664 -45.216,-84.088c-6.459,-5.605 -19.378,-11.211 -25.838,-11.211c-19.378,-0 -32.297,11.211 -38.756,16.817c-129.189,134.54 -406.944,369.984 -936.617,369.984c-594.267,-0 -846.185,-364.378 -846.185,-728.756c0,-341.954 277.756,-611.038 671.781,-611.038c897.86,-0 1408.15,1647.25 2674.2,1647.25c587.835,-0 909.935,-447.589 909.935,-901.666c-0,-493.367 -322.1,-935.386 -845.341,-935.386c-400.484,0 -742.834,173.281 -1136.86,615.809Zm129.189,117.73c213.161,-252.277 620.105,-437.285 878.482,-437.285c368.187,-0 652.429,257.888 652.429,706.38c-0,224.246 -90.459,493.341 -374.674,493.341c-445.7,0 -1156.24,-700.769 -1156.24,-762.436Z" clip-rule="nonzero"/></clipPath><g clip-path="url(#_clip1)"><g id="Define"><path d="M953.183,489.459c678.346,12.252 642.884,-477.929 129.188,-486.752c-671.648,-11.536 -1077.86,638.115 -1077.86,1237.94c0,538.157 328.569,1047.35 1103.7,1047.35c503.835,0 1065.81,-509.19 1065.81,-750.24c0,-39.24 -12.919,-61.663 -45.216,-84.087c-6.459,-5.606 -19.378,-11.211 -25.837,-11.211c-19.379,-0 -32.298,11.211 -38.757,16.817c-129.188,134.54 -406.944,369.984 -936.617,369.984c-594.267,-0 -846.185,-364.378 -846.185,-728.756c0,-341.954 277.841,-618.153 671.781,-611.039Z" style="fill:#000080;fill-rule:nonzero;"/></g><g id="Empathy"><path d="M2289.53,1454.12l0,-807.426c-285.466,-273.969 -745.985,-644.606 -1209.58,-644.606c-671.78,0 -523.213,486.753 -129.188,486.753c500.646,-0 880.792,512.16 1338.77,965.279Z" style="fill:#bb0009;"/></g></g><path d="M2552.69,914.846c-135.648,-134.503 -800.969,-912.763 -1472.75,-912.763c-671.78,0 -1077.86,638.115 -1077.86,1237.94c0,538.157 328.569,1047.35 1103.7,1047.35c503.835,0 1065.81,-509.19 1065.81,-750.239c0,-39.241 -12.919,-61.664 -45.216,-84.088c-6.459,-5.605 -19.378,-11.211 -25.838,-11.211c-19.378,-0 -32.297,11.211 -38.756,16.817c-129.189,134.54 -406.944,369.984 -936.617,369.984c-594.267,-0 -846.185,-364.378 -846.185,-728.756c0,-341.954 277.756,-611.038 671.781,-611.038c897.86,-0 1408.15,1647.25 2674.2,1647.25c587.835,-0 909.935,-447.589 909.935,-901.666c-0,-493.367 -322.1,-935.386 -845.341,-935.386c-400.484,0 -742.834,173.281 -1136.86,615.809Zm129.189,117.73c213.161,-252.277 620.105,-437.285 878.482,-437.285c368.187,-0 652.429,257.888 652.429,706.38c-0,224.246 -90.459,493.341 -374.674,493.341c-445.7,0 -1156.24,-700.769 -1156.24,-762.436Z" style="fill:none;fill-rule:nonzero;stroke:#000;stroke-width:4.17px;"/>
</svg>