<?xml version="1.0" encoding="UTF-8" standalone="no"?><!DOCTYPE svg PUBLIC "-//W3C//DTD SVG 1.1//EN" "http://www.w3.org/Graphics/SVG/1.1/DTD/svg11.dtd"><svg width="100%" height="100%" viewBox="0 0 1067 1063" version="1.1" xmlns="http://www.w3.org/2000/svg" xmlns:xlink="http://www.w3.org/1999/xlink" xml:space="preserve" xmlns:serif="http://www.serif.com/" style="fill-rule:evenodd;clip-rule:evenodd;stroke-linejoin:round;stroke-miterlimit:2;"><g><path d="M552.267,385.878l-0,8.591l-137.677,-0c0,-0 -66.075,-7.494 -66.075,96.696c-0,43.926 10.251,68.676 22.188,82.544c-10.045,-14.632 -18.021,-38.458 -18.021,-77.206c-0,-104.19 66.075,-96.696 66.075,-96.696l137.677,-0l-0,-13.929l-4.167,-0Z" style="fill:#306998;"/><path d="M457.883,380.54l-0.102,-41.053c-0,-0 -6.448,-44.779 96.811,-44.779c52.444,-0 77.432,12.751 89.196,25.916c-9.616,-14.78 -33.753,-31.255 -93.363,-31.255c-103.259,0 -96.811,44.78 -96.811,44.78l0.115,46.391l4.154,-0Z" style="fill:#306998;"/><path d="M511.837,330.298c3.788,3.191 6.149,7.982 6.149,13.333c-0,9.804 -7.924,17.728 -17.728,17.728c-6.912,-0 -12.889,-3.939 -15.746,-9.733c3.061,2.76 7.126,4.395 11.579,4.395c9.804,-0 17.728,-7.924 17.728,-17.728c-0,-2.892 -0.69,-5.621 -1.982,-7.995Z" style="fill:#306998;"/><path d="M623.438,637.086c3.787,3.191 6.148,7.982 6.148,13.333c-0,9.804 -7.924,17.728 -17.728,17.728c-6.911,-0 -12.889,-3.939 -15.746,-9.733c3.062,2.76 7.127,4.395 11.58,4.395c9.803,-0 17.727,-7.924 17.727,-17.728c0,-2.892 -0.689,-5.621 -1.981,-7.995Z" style="fill:#ffd43b;"/><path d="M464.161,668.088c-7.881,-11.918 -6.21,-22.734 -6.21,-22.734l-0,-89.213c-0,-53.956 54.909,-53.068 54.909,-53.068l97.732,-0c58.607,-0 56.751,-57.672 56.751,-57.672l0,-48.348l34.419,-0c0,-0 19.295,-1.236 35.485,17.95c-16.899,-24.746 -39.651,-23.288 -39.651,-23.288l-34.419,-0l-0,48.348c-0,-0 1.855,57.672 -56.752,57.672l-97.732,-0c0,-0 -54.909,-0.888 -54.909,53.067l-0,89.214c-0,-0 -2.203,14.263 10.377,28.072Z" style="fill:#ffd43b;"/><path d="M650.067,608.172l-94.384,0l-0,-5.338l94.371,0l0.013,5.338Z" style="fill:#ffd43b;"/></g><g><g><path d="M643.788,320.624c7.881,11.918 6.211,22.734 6.211,22.734l-0,89.213c-0,53.956 -54.91,53.068 -54.91,53.068l-97.731,0c-58.607,0 -56.752,57.672 -56.752,57.672l0,48.348l-34.419,0c0,0 -19.294,1.236 -35.484,-17.95c16.899,24.746 39.651,23.288 39.651,23.288l34.419,0l-0,-48.348c-0,0 -1.855,-57.672 56.751,-57.672l97.732,0c0,0 54.91,0.888 54.91,-53.067l-0,-89.214c-0,0 2.202,-14.263 -10.378,-28.072Z" style="fill:none;stroke:#c7c1c1;stroke-width:1.67px;"/><path d="M552.267,385.878l-94.371,-0l-0.013,-5.338l94.384,-0l-0,5.338Z" style="fill:none;stroke:#c7c1c1;stroke-width:1.67px;"/><path d="M484.512,351.626c-3.788,-3.191 -6.148,-7.982 -6.148,-13.333c-0,-9.804 7.923,-17.728 17.727,-17.728c6.912,0 12.889,3.939 15.746,9.733c-3.061,-2.76 -7.126,-4.395 -11.579,-4.395c-9.804,0 -17.728,7.924 -17.728,17.728c0,2.892 0.69,5.621 1.982,7.995Z" style="fill:none;stroke:#c7c1c1;stroke-width:1.67px;"/><path d="M457.883,380.54l94.384,-0l-0,5.338l4.167,-0l-0,13.929l-137.677,-0c0,-0 -66.075,-7.494 -66.075,96.696c-0,38.748 7.976,62.574 18.021,77.206c16.19,19.186 35.484,17.95 35.484,17.95l34.419,0l0,-48.348c0,0 -1.855,-57.672 56.752,-57.672l97.731,0c0,0 54.91,0.888 54.91,-53.068l-0,-89.213c-0,-0 1.67,-10.816 -6.211,-22.734c-11.764,-13.165 -36.752,-25.916 -89.196,-25.916c-103.259,-0 -96.811,44.779 -96.811,44.779l0.102,41.053Z" style="fill:none;stroke:#c7c1c1;stroke-width:1.67px;"/><path d="M511.837,330.298c3.788,3.191 6.149,7.982 6.149,13.333c-0,9.804 -7.924,17.728 -17.728,17.728c-6.912,-0 -12.889,-3.939 -15.746,-9.733c-3.788,-3.191 -6.148,-7.982 -6.148,-13.333c-0,-9.804 7.923,-17.728 17.727,-17.728c6.912,0 12.889,3.939 15.746,9.733Z" style="fill:none;stroke:#c7c1c1;stroke-width:1.67px;"/><path d="M650.067,608.172l0.102,41.053c-0,0 6.448,44.779 -96.811,44.779c-52.445,0 -77.432,-12.751 -89.197,-25.916c9.616,14.78 33.754,31.255 93.363,31.255c103.26,-0 96.811,-44.78 96.811,-44.78l-0.115,-46.391l-4.153,0Z" style="fill:none;stroke:#c7c1c1;stroke-width:1.67px;"/><path d="M596.112,658.414c-3.787,-3.191 -6.148,-7.982 -6.148,-13.333c0,-9.804 7.924,-17.728 17.728,-17.728c6.911,0 12.889,3.939 15.746,9.733c-3.062,-2.76 -7.127,-4.395 -11.58,-4.395c-9.803,0 -17.727,7.924 -17.727,17.728c-0,2.892 0.689,5.621 1.981,7.995Z" style="fill:none;stroke:#c7c1c1;stroke-width:1.67px;"/><path d="M737.247,415.003c10.044,14.632 18.021,38.458 18.021,77.206c0,104.19 -66.076,96.696 -66.076,96.696l-137.676,0l-0,13.929l4.167,0l-0,-8.591l137.676,0c0,0 66.076,7.494 66.076,-96.696c-0,-43.926 -10.251,-68.676 -22.188,-82.544Z" style="fill:none;stroke:#c7c1c1;stroke-width:1.67px;"/><path d="M464.161,668.088c11.765,13.165 36.752,25.916 89.197,25.916c103.259,0 96.811,-44.779 96.811,-44.779l-0.102,-41.053l-94.384,0l-0,-5.338l-4.167,0l-0,-13.929l137.676,0c0,0 66.076,7.494 66.076,-96.696c0,-38.748 -7.977,-62.574 -18.021,-77.206c-16.19,-19.186 -35.485,-17.95 -35.485,-17.95l-34.419,-0l0,48.348c0,-0 1.856,57.672 -56.751,57.672l-97.732,-0c0,-0 -54.909,-0.888 -54.909,53.068l-0,89.213c-0,0 -1.671,10.816 6.21,22.734Z" style="fill:none;stroke:#c7c1c1;stroke-width:1.67px;"/><path d="M623.438,637.086c3.787,3.191 6.148,7.982 6.148,13.333c-0,9.804 -7.924,17.728 -17.728,17.728c-6.911,-0 -12.889,-3.939 -15.746,-9.733c-3.787,-3.191 -6.148,-7.982 -6.148,-13.333c0,-9.804 7.924,-17.728 17.728,-17.728c6.911,0 12.889,3.939 15.746,9.733Z" style="fill:none;stroke:#c7c1c1;stroke-width:1.67px;"/><ellipse cx="555.615" cy="499.586" rx="211.044" ry="214.172" style="fill:none;stroke:#c7c1c1;stroke-width:1.67px;stroke-miterlimit:1.5;"/></g></g></svg>