<?xml version="1.0" encoding="UTF-8" standalone="no"?><!DOCTYPE svg PUBLIC "-//W3C//DTD SVG 1.1//EN" "http://www.w3.org/Graphics/SVG/1.1/DTD/svg11.dtd"><svg width="100%" height="100%" viewBox="0 0 867 334" version="1.1" xmlns="http://www.w3.org/2000/svg" xmlns:xlink="http://www.w3.org/1999/xlink" xml:space="preserve" xmlns:serif="http://www.serif.com/" style="fill-rule:evenodd;clip-rule:evenodd;stroke-miterlimit:10;"><path d="M501.25,99.583l12.5,0l0,-32.083l-12.5,0c-1.667,-7.083 -4.583,-14.167 -8.333,-20.417l9.166,-9.166l-22.916,-22.917l-9.167,9.167c-6.25,-3.75 -13.333,-6.667 -20.417,-8.334l0,-12.5l-32.083,0l0,12.5c-7.083,1.667 -14.167,4.584 -20.417,8.334l-9.166,-9.167l-22.917,22.917l9.167,9.166c-3.75,6.25 -6.667,13.334 -8.334,20.417l-12.5,-0l0,32.083l12.5,0c1.667,7.084 4.584,14.167 8.334,20.417l-9.167,9.167l22.917,22.916l8.333,-8.333l-0,1.667c-0,4.583 2.5,8.75 6.25,11.25c-0.417,1.666 -0.833,2.916 -0.833,4.583c-0,7.5 5.833,13.333 13.333,13.333l37.5,0c7.5,0 13.333,-5.833 13.333,-13.333c0,-1.667 -0.416,-3.333 -0.833,-4.583c3.75,-2.5 6.25,-6.667 6.25,-11.25l-0,-1.25l7.917,7.916l22.916,-22.916l-9.166,-9.167c3.75,-6.25 6.666,-13.333 8.333,-20.417Z" style="fill:#d4ff24;"/><path d="M452.083,164.167l-37.5,-0c-1.666,-0 -2.5,-1.25 -2.5,-2.5c0,-1.667 1.25,-2.5 2.5,-2.5l37.5,-0c1.667,-0 2.5,1.25 2.5,2.5c0.417,1.25 -0.833,2.5 -2.5,2.5Z" style="fill:#d4ffb1;"/><path d="M457.5,147.917l-48.333,-0c-1.667,-0 -2.5,-1.25 -2.5,-2.5c-0,-1.667 1.25,-2.5 2.5,-2.5l48.333,-0c1.667,-0 2.5,1.25 2.5,2.5c0.417,1.25 -0.833,2.5 -2.5,2.5Z" style="fill:#d4ffb1;"/><path d="M491.667,93.333c-1.667,8.75 -5,17.084 -10,24.167l-2.5,3.75l7.5,7.5l-7.5,7.5l-7.5,-7.5l-3.75,2.5c-0.834,0.833 -2.084,1.25 -3.334,2.083c-1.25,-0.833 -2.5,-1.25 -4.166,-1.666l-0,-8.334c13.333,-8.75 21.666,-24.166 21.666,-40c0,-26.666 -21.666,-48.333 -48.333,-48.333c-26.667,0 -48.75,21.667 -48.75,48.333c0,16.25 8.333,31.25 21.667,40l-0,8.334c-1.667,0.416 -2.917,0.833 -4.167,1.666c-1.25,-0.833 -2.083,-1.25 -3.333,-2.083l-3.75,-2.5l-7.5,7.5l-7.5,-7.5l7.5,-7.5l-2.5,-3.75c-5,-7.083 -8.75,-15.417 -10,-24.167l-0.834,-4.583l-10.833,-0l0,-10.833l10.833,-0l0.834,-4.584c1.666,-8.75 5,-17.083 10,-24.166l2.5,-3.75l-7.5,-7.5l7.5,-7.5l7.5,7.5l3.75,-2.5c7.083,-5 15.416,-8.75 24.166,-10l4.584,-0.834l-0,-11.25l10.833,0l0,10.834l4.583,0.833c8.75,1.667 17.084,5 24.167,10l3.75,2.5l7.5,-7.5l7.5,7.5l-7.5,7.5l2.5,3.75c5,7.083 8.75,15.417 10,24.167l0.833,4.583l10.834,0l-0,10.833l-10.834,0l-0.416,5Z" style="fill:#d4ffb1;"/><path d="M438.75,98.333c6.25,-2.083 10.833,-8.333 10.833,-15c0,-8.75 -7.083,-16.25 -16.25,-16.25c-9.166,0 -16.25,7.084 -16.25,16.25c0,7.084 4.584,12.917 10.834,15l-0,33.334l-10.834,-0l0,-14.167l-2.5,-1.667c-11.666,-6.666 -18.75,-19.166 -18.75,-32.5c0,-20.833 17.084,-37.5 37.5,-37.5c6.61,0 12.87,1.791 18.314,4.905c11.373,6.505 19.186,18.788 19.186,32.595c0,13.334 -7.083,25.834 -18.75,32.5l-2.5,1.667l0,14.167l-10.833,-0l0,-33.334Z" style="fill:#d4ffb1;"/><path d="M433.333,88.75c-2.916,-0 -5.416,-2.5 -5.416,-5.417c-0,-2.916 2.5,-5.416 5.416,-5.416c2.917,-0 5.417,2.5 5.417,5.416c0,2.917 -2.5,5.417 -5.417,5.417Z" style="fill:#d4ffb1;"/><g><path d="M342.5,174.583c-5.417,0 -10.833,2.917 -13.333,7.5l-8.334,13.75l-0.416,-0.833l-0,-16.667l17.5,-7.083c5.833,-2.083 9.583,-7.917 9.583,-13.75c0,-5 -2.5,-9.167 -6.25,-12.083c-3.75,-2.917 -8.75,-3.75 -13.333,-2.084l-2.084,0.834l2.084,-4.167c2.083,-4.167 3.333,-9.167 3.333,-14.167c0,-8.333 -7.083,-15.416 -15.417,-15.416c-5.833,-0 -11.25,3.333 -13.75,8.333l-13.333,26.667l-11.25,55l0,70.833l4.167,21.667l-15,-0l-0,37.5l80.833,-0l0,-37.5l-16.25,-0l0,-35.834l10,-14.583l14.583,-38.75c1.667,-4.167 2.5,-8.75 2.5,-13.333c-0.416,-8.75 -7.5,-15.834 -15.833,-15.834Zm-11.667,-21.25c1.25,-0.416 2.5,-0.416 3.75,0.417c1.25,0.833 1.667,2.083 1.667,3.333c0,1.667 -0.833,3.334 -2.5,3.75l-13.333,5.834l-0,-9.584l10.416,-3.75Zm5.834,150.417l-0,16.25l-59.167,0l0,-16.25l59.167,0Zm8.75,-103.75l-13.75,37.083l-11.25,17.084l-0,39.166l-27.917,0l-4.167,-22.5l0,-68.75l10.417,-52.5l12.917,-26.25c0.833,-1.666 2.5,-2.5 4.166,-2.5c2.5,0 4.584,2.084 4.584,4.584c-0,3.333 -0.834,6.25 -2.084,9.166l-8.75,17.084l0,45.416l10.417,20.834l18.333,-30.417c0.834,-1.667 2.5,-2.5 4.167,-2.5c2.917,-0 5,2.083 5,5c0,3.75 -0.833,6.667 -2.083,10Z" style="fill:none;fill-rule:nonzero;stroke:#000;stroke-width:4.17px;"/><path d="M585,292.917l4.167,-20.417l-0,-70.833l-10.834,-55l-13.75,-27.917c-2.5,-5.417 -7.916,-8.333 -13.75,-8.333c-8.333,-0 -15.416,7.083 -15.416,15.416c-0,5 1.25,9.584 3.333,14.167l2.083,4.167l-2.083,-0.834c-4.583,-1.666 -9.583,-0.833 -13.333,2.084c-3.75,2.916 -6.25,7.5 -6.25,12.083c-0,6.25 3.75,11.667 9.583,13.75l17.5,7.083l0,16.667l-0.417,0.833l-7.916,-13.333c-2.917,-4.583 -7.917,-7.5 -13.334,-7.5c-8.75,0 -15.833,7.083 -15.833,15.833c0,4.584 0.833,8.75 2.5,13.334l14.167,37.5l10.416,15.833l0,35.833l-16.25,0l0,37.5l80.417,0l0,-37.5l-15,0l0,-0.416Zm-52.083,-131.667c-1.667,-0.833 -2.5,-2.083 -2.5,-3.75c-0,-1.25 0.833,-2.5 1.666,-3.333c1.25,-0.834 2.5,-0.834 3.75,-0.417l10.417,3.75l0,9.167l-13.333,-5.417Zm2.083,75.417l-13.75,-37.084c-1.25,-2.916 -1.667,-6.25 -1.667,-9.583c0,-2.917 2.084,-5 5,-5c1.667,0 3.334,0.833 4.167,2.5l18.333,30.417l10.417,-20.834l0,-45l-8.75,-17.083c-1.25,-2.917 -2.083,-6.25 -2.083,-9.167c-0,-2.5 2.083,-4.583 4.583,-4.583c1.667,0 3.333,0.833 4.167,2.5l12.916,26.25l10.417,52.5l-0,68.333l-4.583,22.084l-27.917,-0l-0,-39.167l-11.25,-17.083Zm54.167,83.333l-59.167,0l-0,-16.25l59.167,0l-0,16.25Z" style="fill:none;fill-rule:nonzero;stroke:#000;stroke-width:4.17px;"/><circle cx="433.699" cy="191.233" r="9.596" style="fill:none;stroke:#000;stroke-width:4.17px;stroke-linecap:round;stroke-linejoin:round;stroke-miterlimit:1.5;"/><circle cx="433.116" cy="219.187" r="9.596" style="fill:none;stroke:#000;stroke-width:4.17px;stroke-linecap:round;stroke-linejoin:round;stroke-miterlimit:1.5;"/><circle cx="432.883" cy="246.592" r="9.596" style="fill:none;stroke:#000;stroke-width:4.17px;stroke-linecap:round;stroke-linejoin:round;stroke-miterlimit:1.5;"/></g></svg>