<?xml version="1.0" encoding="UTF-8" standalone="no"?><!DOCTYPE svg PUBLIC "-//W3C//DTD SVG 1.1//EN" "http://www.w3.org/Graphics/SVG/1.1/DTD/svg11.dtd"><svg width="100%" height="100%" viewBox="0 0 8889 5000" version="1.1" xmlns="http://www.w3.org/2000/svg" xmlns:xlink="http://www.w3.org/1999/xlink" xml:space="preserve" xmlns:serif="http://www.serif.com/" style="fill-rule:evenodd;clip-rule:evenodd;stroke-linecap:round;stroke-linejoin:round;stroke-miterlimit:1.5;"><path d="M911.702,4057.08c-38.132,10.236 -75.88,21.643 -113.4,33.486c-104.73,33.195 -208.182,70.264 -310.876,109.161c266.647,231.919 617.837,374.127 1004.14,374.127c369.196,0 706.979,-129.266 968.953,-343.127c-136.07,-61.416 -328.135,-123.417 -328.135,-123.417c-228.37,-42.625 -297.459,-93.513 -297.459,-93.513c-73.316,-32.463 -60.73,-339.398 -60.73,-339.398c113.09,-14.257 106.838,-351.682 106.838,-351.682c79.568,48.768 85.892,-52.861 85.892,-52.861c4.143,-38.605 25.089,-109.745 25.089,-109.745c77.532,-237.842 -35.64,-180.959 -35.64,-180.959c62.838,-231.7 35.64,-430.864 35.64,-430.864c-13.562,-99.143 -60.802,-181.616 -146.019,-239.231c-28.859,-19.522 -60.2,-35.534 -92.974,-47.89c-44.602,-16.817 -90.793,-39.555 -136.527,-51.765c-37.302,-10.017 -75.653,-15.866 -114.149,-19.521c-42.421,-3.949 -85.674,-5.85 -128.24,-3.437c-39.857,0 -58.695,24.42 -58.695,24.42c-6.033,7.677 -57.489,17.036 -69.318,22.446c-21.101,9.578 -41.673,20.326 -61.788,31.732c-51.083,29.173 -96.516,66.826 -144.057,100.899c-37.146,26.612 -84.313,44.453 -110.836,82.765c-23.137,33.486 -35.868,72.969 -43.096,112.304c-8.214,45.038 -13.49,98.266 -4.445,143.744c10.395,52.861 25.09,288.655 25.09,288.655c-83.784,-16.231 -37.676,103.677 -37.676,103.677c16.73,22.373 39.784,144.329 39.784,144.329c20.946,176.863 108.946,105.723 108.946,105.723c-14.695,313.004 94.261,329.235 94.261,329.235c14.622,182.933 -20.946,288.656 -20.946,288.656c-26.595,67.704 -117.689,75.454 -179.624,92.051Z" style="stroke:#ebebeb;stroke-width:5.56px;"/><path d="M2935.13,3645.8c-7.71,-74.386 -36.817,-146.795 -88.084,-206.518c-5.802,-6.758 -11.781,-12.5 -18.141,-19.732l-0.002,-0c-18.067,-17.357 -37.569,-34.272 -58.144,-47.953c-144.507,-96.096 -342.067,-80.196 -468.952,47.808l-127.224,128.322l-103.907,-104.832c-83.313,-84.047 -197.098,-119.795 -306.328,-107.227c-80.813,9.299 -159.13,45.037 -220.768,107.218c-81.659,82.378 -117.316,194.291 -106.97,302.459c2.873,30.026 9.441,59.721 19.401,88.458c10.507,30.31 24.936,59.486 43.329,86.736c12.862,19.057 27.523,37.221 44.24,54.088l103.904,104.823l9.677,9.762l85.947,86.705l431.475,435.28l527.099,-531.747l127.223,-128.346c57.023,-57.526 91.22,-129.497 103.357,-204.484c5.4,-33.361 6.348,-67.242 2.868,-100.82Z" style="fill:#8a0700;fill-rule:nonzero;"/><path d="M1519.84,3951.64l544.839,-3.333l75.708,467.923l147.806,-783.304l94.178,286.628l492.225,-23.206" style="fill:none;stroke:#ebebeb;stroke-width:5.56px;"/></svg>